<svg xmlns="http://www.w3.org/2000/svg" width="1791.999" height="1791.999" fill-rule="evenodd" clip-rule="evenodd" image-rendering="optimizeQuality" shape-rendering="geometricPrecision" text-rendering="geometricPrecision" viewBox="0 0 47413.32 47413.32"><rect width="47413.32" height="47413.32" fill="none"/><polygon fill="#155f84" fill-rule="nonzero" points="13196.95 12103.19 13295.92 11125.35 10748.34 10094.9 10624.38 10870.89"/><polygon fill="#cf9e5f" fill-rule="nonzero" points="43522.48 38609.2 32389.24 42302.43 29697.55 34187.2 40830.79 30495.31"/><polygon fill="#d9d9d9" fill-rule="nonzero" points="42635.42 29920.08 30027.97 34101.68 28396.84 29181.12 41004.3 24999.52"/><polygon fill="#9d764b" fill-rule="nonzero" points="38173.82 25934.05 28316.32 29204.17 26685.08 24283.61 36541.31 21013.65"/><path fill="#664624" fill-rule="nonzero" d="M12273.51 15400.12c2356.03,208.47 756.72,-2311.34 534.76,-4012.84l-8.62 -3506.53 -967.44 -250.59c0,0 -431.01,981.75 -1082.05,1597.94 -88.17,830.96 -190.22,1730.92 -241.02,1962.33 107.44,444.93 -591.51,4001.32 1764.37,4209.69z"/><path fill="#815932" fill-rule="nonzero" d="M14279.3 5003.05c408.69,937.14 -47.47,1641.52 255.04,2046.73 302.47,405.21 430.86,363.14 450.03,530.56 19.03,168.65 -284.57,230.14 -298.2,458.95 -16.23,276.09 -97.44,688.95 -105.63,977.94 -10,357.88 74.54,582.92 -206.99,738.96 -520.95,286.38 -1404.53,-49.97 -1905.41,-237.79 -712.14,-268.49 -1385.54,-1119.85 -1464.65,-1760.39 -503.92,-135.46 -2237.05,-1200.33 -1340.57,-2683.36 896.63,-1482.84 3849.01,-1830.58 4616.38,-71.6z"/><path fill-rule="nonzero" d="M14279.3 5003.05c-195.43,-122.74 -1701.36,-195.47 -1934.29,609.8 -194.49,673.7 3.62,974.11 -778.2,1342.39 -490.04,-571.5 -925.08,205.72 -538.06,449.92 84.54,52.48 40.12,272.37 40.12,272.37l283.45 888.43 -593.29 662.14c0,0 -1569.19,-508.74 -1700.52,-2330.48 -133.68,-1853.62 699.79,-2983.73 1849.06,-3130.75 2057.68,-263.34 3054.98,462.83 3371.73,1236.18z"/><path fill="#1e7dac" fill-rule="nonzero" d="M14288.9 4944.31c38.74,-319.69 -340.96,-1807.68 -950.91,-2183.46 -611.51,-378.43 -1931.39,-515.16 -2391.82,-405.36 -460.33,108.71 -1602.68,845.13 -1976.66,1476.61 -357.59,604.7 30.26,1931.65 118.28,2310.08 2093.67,-129.08 3390.21,-437.28 5201.11,-1197.87z"/><path fill="#18658c" fill-rule="nonzero" d="M12021.15 5726.71c0,0 1131.23,53.56 3059.83,-89.54 1449.4,-107.45 1637.51,-1122.35 1637.51,-1122.35l-2501.52 -138.14c0,0 -93.13,203.26 -679.24,604.7 -586.21,401.33 -1516.58,745.33 -1516.58,745.33z"/><path fill-rule="nonzero" d="M14264.19 6937.34c-10.84,135.49 -129.52,236.41 -265.01,226.12 -135.34,-11.38 -236.12,-130.35 -225.29,-265.84 10.8,-134.22 129.52,-235.15 264.97,-224.89 135.35,11.41 236.42,129.11 225.33,264.61z"/><path fill="#fff" fill-rule="nonzero" d="M14587.35 8897.03c25.7,-192.97 59.14,-403.98 73.17,-602.2l-738.52 24.28c0,0 292.07,432.17 665.35,577.92z"/><path fill="#815932" fill-rule="nonzero" d="M11611.63 7317c-57.04,386.04 -295.41,668.55 -532.22,634.12 -236.96,-35.8 -382.6,-375.93 -325.52,-760.74 57.04,-384.8 295.41,-668.54 532.22,-634.12 236.81,35.84 382.6,375.93 325.52,760.74z"/><path fill-rule="nonzero" d="M14431.17 6425.92l-988.78 21.67 0.94 -53.6c2.65,-139.37 147.6,-250.55 323.61,-246.81l687.13 -34.43 -22.9 313.17z"/><path fill="#1e7dac" fill-rule="nonzero" d="M11033.46 2372.16l-410.9 143.1c-69.54,24.32 -146.32,-12.61 -170.46,-82.98l0 0c-24.17,-69 13.05,-145.78 82.59,-170.06l411.19 -143.14c69.54,-24.28 146.18,14.02 170.31,83.02l0 0c24.03,68.99 -13.04,145.78 -82.73,170.06z"/><path fill-rule="nonzero" d="M9668.07 6595.98c-0.58,274.86 -223.81,495.98 -498.38,495.98 -274.57,-1.23 -496.67,-223.62 -495.98,-498.63 0.68,-274.86 223.76,-497.25 498.33,-495.98 274.58,0 496.71,223.77 496.03,498.63z"/><path fill-rule="nonzero" d="M9722.75 7448.61c-0.55,273.6 -223.77,495.99 -498.38,495.99 -274.57,-1.24 -496.67,-224.89 -495.98,-498.49 0.54,-274.86 223.77,-497.25 498.37,-496.02 274.58,0 496.68,223.66 495.99,498.52z"/><path fill-rule="nonzero" d="M10139.48 8161.99c-0.69,274.86 -223.91,497.25 -498.48,495.98 -274.61,-1.23 -496.71,-223.77 -496.02,-498.48 0.68,-274.87 223.76,-496.13 498.52,-496.13 274.57,1.37 496.52,223.76 495.98,498.63z"/><path fill-rule="nonzero" d="M10750.26 8706.56c-0.68,273.64 -223.91,496.03 -498.48,496.03 -274.57,-1.27 -496.71,-225.04 -495.98,-498.53 0.68,-274.86 223.76,-497.36 498.48,-496.12 274.57,0 496.56,223.76 495.98,498.62z"/><path fill-rule="nonzero" d="M11447.15 8847.2c-0.54,274.87 -223.77,497.26 -498.38,495.99 -274.57,-1.24 -496.67,-223.63 -495.98,-498.49 0.69,-274.86 223.91,-496.02 498.48,-496.02 274.61,1.27 496.71,223.66 495.88,498.52z"/><path fill="#1e7dac" fill-rule="nonzero" d="M13460.15 12641.39l-714.21 -869.31 -2341.89 -1011.13c0,0 -549.14,856.51 -546.5,2413.64 1.78,1023.89 483.23,8860.34 483.23,8860.34l4470.63 0c0,0 40.95,-4631.52 23.99,-5654.22 -13.73,-832.2 -1375.25,-3739.32 -1375.25,-3739.32z"/><polygon fill="#155f84" fill-rule="nonzero" points="12765.91 12020.17 12864.91 11042.19 10317.3 10013.11 10193.33 10787.73"/><polygon fill="#0f5070" fill-rule="nonzero" points="13460.15 12641.39 12859.22 11099.66 12783.41 11847.6"/><polygon fill="#001932" fill-rule="nonzero" points="14738.65 22974.57 19040.38 33491.87 20542.5 42868.75 17959.37 42930.14 15692.35 34111.83 9573.77 24278.5"/><path fill="#132e42" fill-rule="nonzero" d="M10316.75 22034.93c0,0 -803.49,1575.03 -803.49,2937.79 0,557.37 -97.01,8254.41 -97.01,8254.41l-4493.14 8039.86 2142.81 1132.6 5860.59 -8552.36 1884.9 -11812.3 -4494.66 0z"/><path fill="#664624" fill-rule="nonzero" d="M14804.06 22034.93l-4487.31 0c0,0 -114.8,241.67 -193.11,428.37 -78.16,185.35 -202.67,511.27 -202.67,511.27l4817.68 0 65.41 -939.64z"/><polygon fill="#132e42" fill-rule="nonzero" points="11775.32 22974.57 12107.4 22974.57 12107.4 22034.97 11775.32 22034.97"/><path fill="#664624" fill-rule="nonzero" d="M3890.85 42941.66l730.48 -965.19c0,0 1556.84,1061.04 1804.34,1328.22 250.44,406.51 1308.21,456.41 1414.28,906.37 61.1,258.23 -257.5,1054.7 -257.5,1054.7 0,0 -1508.54,-158.54 -1970.1,-865.5 -461.84,-708.19 -1721.5,-1458.6 -1721.5,-1458.6z"/><path fill="#9d764b" fill-rule="nonzero" d="M4046.35 42731.99c0,0 900.07,637.93 1611.12,1531.51 710.73,892.28 2045.07,676.26 2045.07,676.26l-106.9 323.39c0,0 -1326.7,235.22 -2045.22,-676.23 -718.52,-911.49 -1659.57,-1645.26 -1659.57,-1645.26l155.5 -209.67z"/><path fill="#664624" fill-rule="nonzero" d="M18598.24 45301.56l-314.98 -1168.48c0,0 1792.68,-579.08 2155.71,-611.08 475.58,51.14 1163.29,-752.98 1582.64,-562.48 241.7,109.91 676.19,850.18 676.19,850.18 0,0 -1050.85,1095.49 -1891.97,1026.46 -842.48,-69 -2207.59,465.4 -2207.59,465.4z"/><path fill="#9d764b" fill-rule="nonzero" d="M18528.12 45050.98c0,0 1055.57,-319.62 2197.23,-334.95 1141.49,-14.06 1788.4,-1200.4 1788.4,-1200.4l189.2 282.51c0,0 -626.37,1192.76 -1787.17,1201.71 -1160.8,8.95 -2317.54,301.71 -2317.54,301.71l-70.12 -250.58z"/><polygon fill="#0a4f6f" fill-rule="nonzero" points="17855.26 42634.84 20539.89 41957.27 20717.7 43478.59 18289.21 44156.09"/><path fill="#0a4f6f" fill-rule="nonzero" d="M14422 22974.57l-259.02 0c0.58,6.38 46.09,673.7 -309,1254.08 -403.29,659.67 -1064.88,809.18 -1202.29,833.46l0 -2087.54 -244.46 0 0 2340.77c0,0 126.32,8.88 244.46,0 118.24,-9.02 915.9,-143.28 1413.55,-957.58 397.75,-649.37 358.72,-1353.76 356.76,-1383.19z"/><polygon fill-rule="nonzero" points="32966.73 42945.5 32146.31 43208.8 24359.72 17269.15 25157.38 17030.12"/><polygon fill-rule="nonzero" points="39491.2 39936.19 39729.97 40733.88 32137.97 43216.49 31917.25 42421.32"/><polygon fill-rule="nonzero" points="32150.47 43216.49 25973.09 42519.75 21960.26 28699.16 25216.23 22336.72 18276.6 21446.91 18371.25 20709.36 26360.36 21733.26 22756.65 28774.54 26544.59 41819.2 32215.74 42462.24"/><path fill-rule="nonzero" d="M29006.68 42054.45c398.8,1328.26 -355.38,2726.81 -1682.36,3124.34 -1328.22,397.56 -2726.81,-355.35 -3124.37,-1683.6 -398.83,-1326.99 355.38,-2725.5 1682.33,-3124.41 1328.21,-397.52 2726.8,356.73 3124.4,1683.67z"/><path fill="#815932" fill-rule="nonzero" d="M20496.55 20766.83c0,0 -94.66,176.41 -443.66,210.98 -360.49,34.43 -426.99,-90.77 -426.99,-90.77 0,0 -194.19,285 -467.97,364.26 -273.45,78.01 -762.8,-159.78 -762.8,-159.78l113.57 -372.05 1406.09 -203.22 581.76 250.58z"/><path fill="#815932" fill-rule="nonzero" d="M18323.49 21698.72l185.21 -979.25 -3821.11 -2552.86 -2158.49 -5079.06c-336.22,-896.09 -1088.47,-1169.68 -1371.96,-1008.68l-678.8 730.04c-283.6,161.04 790.99,2087.58 937.57,2423.79l2360.88 4234.08 4546.7 2231.94z"/><path fill="#815932" fill-rule="nonzero" d="M18508.7 20719.47l1265.45 152.16c0,0 3.88,327.34 516.53,650.76 484.5,306.79 1030.31,306.79 1030.31,306.79 0,0 -219.86,263.33 -622.6,427.02 -345.09,140.64 -952.29,39.57 -1271.98,-39.72 -692.82,-171.29 -1102.92,-517.76 -1102.92,-517.76l-96.32 -432.02 281.53 -547.23z"/><path fill="#155f84" fill-rule="nonzero" d="M11291.65 15526.7c238.52,-42.18 761.86,-177.68 1071.69,-310.67 495.05,-210.86 894.67,-581.65 1022.12,-790.01l-816.1 -1605.73c-484.9,-1002.11 -1028.93,-1121.08 -1538.54,-925.47 -509.58,195.58 -725.44,436.01 -584.55,1210.63 140.64,775.99 845.38,2421.25 845.38,2421.25z"/><path fill="#fff" fill-rule="nonzero" d="M12119.57 14662.58c-289.14,117.55 -744.32,242.93 -1036.83,308.02 119.52,327.33 208.91,556.1 208.91,556.1 238.52,-42.18 761.86,-177.68 1071.69,-310.67 495.05,-210.86 894.67,-581.65 1022.12,-790.01l-248.08 -486.96c-161.98,192.93 -564.69,536.78 -1017.81,723.52z"/><polygon fill="#0a4f6f" fill-rule="nonzero" points="5307.49 40519.1 7376.87 42191.22 6516.88 43395.46 4507.22 41916.39"/></svg>